<?xml version="1.0" standalone="no"?>
<!DOCTYPE svg PUBLIC "-//W3C//DTD SVG 20010904//EN"
 "http://www.w3.org/TR/2001/REC-SVG-20010904/DTD/svg10.dtd">
<svg version="1.0" xmlns="http://www.w3.org/2000/svg"
 width="900.000000pt" height="500.000000pt" viewBox="0 0 900.000000 500.000000"
 preserveAspectRatio="xMidYMid meet">

<g transform="translate(0.000000,500.000000) scale(0.100000,-0.100000)"
fill="#000000" stroke="none">
<path d="M5720 3559 c-415 -87 -739 -390 -852 -795 -19 -68 -22 -104 -22 -264
1 -203 11 -262 74 -413 102 -244 314 -461 560 -568 549 -242 1190 -17 1454
508 78 156 110 295 109 478 -2 295 -97 534 -296 742 -210 219 -493 334 -816
332 -75 0 -150 -7 -211 -20z m349 -484 c197 -47 361 -214 415 -422 20 -77 20
-221 1 -298 -51 -200 -204 -363 -397 -422 -33 -10 -88 -16 -148 -16 -160 1
-284 56 -397 177 -96 102 -163 271 -163 409 0 199 114 405 282 510 111 69 272
93 407 62z"/>
<path d="M7770 3536 c-162 -34 -304 -111 -406 -218 -72 -77 -114 -145 -146
-238 -33 -93 -32 -276 0 -370 50 -141 159 -260 305 -333 102 -50 148 -64 364
-107 106 -22 215 -49 243 -61 112 -48 133 -163 48 -255 -55 -59 -119 -79 -237
-71 -188 11 -313 105 -354 267 -13 49 -17 55 -38 52 -45 -7 -430 -100 -436
-106 -4 -3 1 -33 10 -65 65 -232 189 -390 380 -485 270 -134 623 -137 887 -9
80 38 109 60 181 132 68 67 94 103 123 164 144 299 23 642 -277 786 -108 52
-185 74 -405 115 -190 36 -243 55 -275 99 -43 57 -36 159 15 214 83 90 278 99
385 17 51 -38 92 -101 110 -166 9 -32 21 -58 27 -58 6 1 108 29 226 63 l215
62 -3 30 c-6 49 -48 163 -84 223 -18 32 -65 89 -105 129 -57 57 -90 81 -165
116 -51 25 -122 53 -158 62 -88 23 -341 29 -430 11z"/>
<path d="M1133 3513 c5 -8 59 -129 581 -1293 l324 -725 296 -3 296 -2 214 321
214 321 44 -69 c25 -37 120 -182 212 -320 l166 -253 296 0 c233 0 294 3 288
13 -4 6 -162 238 -351 514 -189 276 -343 505 -343 508 0 4 151 227 335 495
184 269 335 492 335 495 0 3 -138 5 -307 5 l-308 0 -180 -296 c-99 -163 -182
-297 -185 -299 -3 -2 -86 131 -184 296 l-178 299 -315 0 c-233 0 -312 -3 -307
-11 4 -7 120 -174 258 -373 139 -199 291 -417 338 -486 l86 -125 -80 -115
c-44 -63 -129 -188 -190 -277 -61 -90 -113 -161 -115 -159 -2 2 -158 349 -347
772 l-343 769 -277 3 c-153 1 -275 -1 -273 -5z"/>
<path d="M4177 3513 c-4 -3 -7 -460 -7 -1015 l0 -1008 255 0 255 0 0 1015 0
1015 -248 0 c-137 0 -252 -3 -255 -7z"/>
</g>
</svg>
